# xmcd
# 
# Track frame offsets:
#     150
#     19985
#     52701
#     72501
# 
# Disc length: 1230
# 
# Revision: 0
# Processed by: cddbd v1.5.2PL0 Copyright (c) Steve Scherf et al.
# Submitted via: fre:ac v1.0.17
# 
DISCID=2e04cc04
DTITLE=Visage - Shameless Fashion
DYEAR=2015
DGENRE=
TTITLE0=Original
TTITLE1=Extended Remix
TTITLE2=Japanese Version
TTITLE3=Instrumental
EXTD=
EXTT0=
EXTT1=
EXTT2=
EXTT3=
PLAYORDER=
